<svg xmlns="http://www.w3.org/2000/svg" viewBox="0 0 410.3 104.3" width="410" height="104" role="img" aria-label="FireSafe Kitchens"><title>FireSafe Kitchens</title><g transform="translate(0,0) scale(1.1119565217391305)"><g transform="translate(-22,-4)"><g transform="translate(0,0) scale(1.0)"><path d="M50 6 C60 24 76 34 76 58 C76 78 64 94 50 94 C36 94 24 80 24 62 C24 48 32 40 35 28 C40 40 45 44 48 46 C47 32 45 20 50 6 Z" fill="#E8561C"></path><path d="M37 64 L47 74 L65 52" fill="none" stroke="#FFFFFF" stroke-width="8" stroke-linecap="round" stroke-linejoin="round"></path></g></g></g><path d="M126.47756521739132 11.616H106.50956521739133Q106.02956521739132 11.616 106.02956521739132 12.096000000000004V27.264000000000003Q106.02956521739132 27.744 106.50956521739133 27.744H117.93356521739132Q118.41356521739132 27.744 118.74956521739132 28.080000000000002Q119.08556521739132 28.416000000000004 119.08556521739132 28.896V38.208Q119.08556521739132 38.688 118.74956521739132 39.024Q118.41356521739132 39.36 117.93356521739132 39.36H106.50956521739133Q106.02956521739132 39.36 106.02956521739132 39.84V66.048Q106.02956521739132 66.528 105.69356521739132 66.864Q105.35756521739131 67.2 104.87756521739132 67.2H93.64556521739132Q93.16556521739132 67.2 92.82956521739132 66.864Q92.49356521739132 66.528 92.49356521739132 66.048V1.152000000000001Q92.49356521739132 0.671999999999997 92.82956521739132 0.3359999999999985Q93.16556521739132 0.0 93.64556521739132 0.0H126.47756521739132Q126.95756521739132 0.0 127.29356521739132 0.3359999999999985Q127.62956521739132 0.671999999999997 127.62956521739132 1.152000000000001V10.463999999999999Q127.62956521739132 10.944000000000003 127.29356521739132 11.280000000000001Q126.95756521739132 11.616 126.47756521739132 11.616ZM132.9095652173913 66.048V1.152000000000001Q132.9095652173913 0.671999999999997 133.2455652173913 0.3359999999999985Q133.5815652173913 0.0 134.06156521739132 0.0H145.29356521739132Q145.7735652173913 0.0 146.10956521739132 0.3359999999999985Q146.4455652173913 0.671999999999997 146.4455652173913 1.152000000000001V66.048Q146.4455652173913 66.528 146.10956521739132 66.864Q145.7735652173913 67.2 145.29356521739132 67.2H134.06156521739132Q133.5815652173913 67.2 133.2455652173913 66.864Q132.9095652173913 66.528 132.9095652173913 66.048ZM180.14156521739133 66.24000000000001 172.74956521739134 39.744Q172.55756521739133 39.36 172.26956521739132 39.36H169.00556521739134Q168.52556521739132 39.36 168.52556521739132 39.84V66.048Q168.52556521739132 66.528 168.1895652173913 66.864Q167.85356521739132 67.2 167.37356521739133 67.2H156.14156521739133Q155.6615652173913 67.2 155.32556521739133 66.864Q154.98956521739132 66.528 154.98956521739132 66.048V1.152000000000001Q154.98956521739132 0.671999999999997 155.32556521739133 0.3359999999999985Q155.6615652173913 0.0 156.14156521739133 0.0H175.53356521739133Q180.81356521739133 0.0 184.94156521739131 2.5440000000000005Q189.06956521739133 5.088000000000001 191.32556521739133 9.696000000000002Q193.58156521739133 14.304000000000002 193.58156521739133 20.256Q193.58156521739133 25.92 191.42156521739133 30.240000000000002Q189.26156521739134 34.56 185.42156521739133 36.96Q185.22956521739133 37.056 185.13356521739132 37.2Q185.03756521739132 37.344 185.13356521739132 37.536L193.96556521739132 65.85600000000001L194.06156521739132 66.24000000000001Q194.06156521739132 67.2 193.00556521739134 67.2H181.48556521739133Q180.4295652173913 67.2 180.14156521739133 66.24000000000001ZM168.52556521739132 12.096000000000004V28.512Q168.52556521739132 28.992000000000004 169.00556521739134 28.992000000000004H173.32556521739133Q176.30156521739133 28.992000000000004 178.17356521739134 26.640000000000004Q180.04556521739133 24.288000000000004 180.04556521739133 20.352000000000004Q180.04556521739133 16.32 178.17356521739134 13.968Q176.30156521739133 11.616 173.32556521739133 11.616H169.00556521739134Q168.52556521739132 11.616 168.52556521739132 12.096000000000004ZM234.28556521739134 11.616H214.22156521739134Q213.74156521739133 11.616 213.74156521739133 12.096000000000004V27.264000000000003Q213.74156521739133 27.744 214.22156521739134 27.744H225.74156521739133Q226.22156521739134 27.744 226.55756521739136 28.080000000000002Q226.89356521739134 28.416000000000004 226.89356521739134 28.896V38.208Q226.89356521739134 38.688 226.55756521739136 39.024Q226.22156521739134 39.36 225.74156521739133 39.36H214.22156521739134Q213.74156521739133 39.36 213.74156521739133 39.84V55.104Q213.74156521739133 55.584 214.22156521739134 55.584H234.28556521739134Q234.76556521739133 55.584 235.10156521739134 55.92Q235.43756521739135 56.256 235.43756521739135 56.736000000000004V66.048Q235.43756521739135 66.528 235.10156521739134 66.864Q234.76556521739133 67.2 234.28556521739134 67.2H201.35756521739134Q200.87756521739132 67.2 200.54156521739134 66.864Q200.20556521739132 66.528 200.20556521739132 66.048V1.152000000000001Q200.20556521739132 0.671999999999997 200.54156521739134 0.3359999999999985Q200.87756521739132 0.0 201.35756521739134 0.0H234.28556521739134Q234.76556521739133 0.0 235.10156521739134 0.3359999999999985Q235.43756521739135 0.671999999999997 235.43756521739135 1.152000000000001V10.463999999999999Q235.43756521739135 10.944000000000003 235.10156521739134 11.280000000000001Q234.76556521739133 11.616 234.28556521739134 11.616Z" fill="#FFFFFF"></path><path d="M241.86956521739134 50.400000000000006V47.616Q241.86956521739134 47.136 242.20556521739132 46.8Q242.54156521739134 46.464 243.02156521739136 46.464H254.06156521739135Q254.54156521739134 46.464 254.87756521739135 46.8Q255.21356521739133 47.136 255.21356521739133 47.616V49.728Q255.21356521739133 52.704 256.74956521739136 54.528000000000006Q258.28556521739137 56.352000000000004 260.58956521739134 56.352000000000004Q262.89356521739137 56.352000000000004 264.42956521739137 54.624Q265.9655652173914 52.896 265.9655652173914 50.112Q265.9655652173914 47.232 264.04556521739136 45.168Q262.12556521739134 43.104 256.55756521739136 39.072Q251.75756521739135 35.616 248.78156521739135 32.928Q245.80556521739135 30.240000000000002 243.69356521739135 26.304000000000002Q241.58156521739136 22.368000000000002 241.58156521739136 17.184000000000005Q241.58156521739136 9.024000000000001 246.66956521739135 4.128Q251.75756521739135 -0.7680000000000007 260.1095652173913 -0.7680000000000007Q268.55756521739136 -0.7680000000000007 273.6935652173913 4.32Q278.82956521739135 9.408000000000001 278.82956521739135 17.664V19.968000000000004Q278.82956521739135 20.448 278.49356521739134 20.784000000000002Q278.1575652173913 21.120000000000005 277.67756521739136 21.120000000000005H266.63756521739134Q266.1575652173913 21.120000000000005 265.82156521739137 20.784000000000002Q265.48556521739135 20.448 265.48556521739135 19.968000000000004V17.376000000000005Q265.48556521739135 14.399999999999999 263.99756521739135 12.623999999999999Q262.50956521739135 10.847999999999999 260.1095652173913 10.847999999999999Q257.80556521739135 10.847999999999999 256.36556521739135 12.527999999999999Q254.92556521739135 14.207999999999998 254.92556521739135 17.184000000000005Q254.92556521739135 20.064 256.74956521739136 22.272000000000002Q258.5735652173913 24.480000000000004 263.94956521739135 28.416000000000004Q269.90156521739135 32.832 272.92556521739135 35.568Q275.94956521739135 38.304 277.62956521739136 41.616Q279.30956521739137 44.928 279.30956521739137 49.536Q279.30956521739137 57.984 274.12556521739134 62.976Q268.94156521739137 67.968 260.49356521739134 67.968Q254.92556521739135 67.968 250.70156521739136 65.76Q246.47756521739134 63.552 244.17356521739134 59.568Q241.86956521739134 55.584 241.86956521739134 50.400000000000006ZM312.81356521739133 66.144 311.2775652173913 56.928000000000004Q311.2775652173913 56.448 310.70156521739136 56.448H298.50956521739135Q297.93356521739133 56.448 297.93356521739133 56.928000000000004L296.39756521739133 66.144Q296.3015652173913 67.2 295.14956521739134 67.2H283.9175652173913Q282.6695652173913 67.2 282.95756521739133 65.952L297.06956521739136 1.0559999999999974Q297.26156521739136 0.0 298.31756521739135 0.0H311.2775652173913Q312.3335652173913 0.0 312.5255652173913 1.0559999999999974L326.54156521739134 65.952L326.63756521739134 66.336Q326.63756521739134 67.2 325.58156521739136 67.2H314.0615652173913Q312.90956521739133 67.2 312.81356521739133 66.144ZM300.23756521739136 45.984H308.87756521739135Q309.3575652173913 45.984 309.26156521739136 45.504000000000005L304.74956521739136 19.296Q304.65356521739136 19.008000000000003 304.46156521739135 19.008000000000003Q304.26956521739135 19.008000000000003 304.17356521739134 19.296L299.85356521739135 45.504000000000005Q299.85356521739135 45.984 300.23756521739136 45.984ZM366.0935652173913 11.616H346.12556521739134Q345.6455652173913 11.616 345.6455652173913 12.096000000000004V27.264000000000003Q345.6455652173913 27.744 346.12556521739134 27.744H357.5495652173913Q358.02956521739134 27.744 358.36556521739135 28.080000000000002Q358.7015652173913 28.416000000000004 358.7015652173913 28.896V38.208Q358.7015652173913 38.688 358.36556521739135 39.024Q358.02956521739134 39.36 357.5495652173913 39.36H346.12556521739134Q345.6455652173913 39.36 345.6455652173913 39.84V66.048Q345.6455652173913 66.528 345.3095652173913 66.864Q344.97356521739135 67.2 344.49356521739134 67.2H333.2615652173913Q332.78156521739135 67.2 332.44556521739133 66.864Q332.1095652173913 66.528 332.1095652173913 66.048V1.152000000000001Q332.1095652173913 0.671999999999997 332.44556521739133 0.3359999999999985Q332.78156521739135 0.0 333.2615652173913 0.0H366.0935652173913Q366.5735652173913 0.0 366.90956521739133 0.3359999999999985Q367.24556521739134 0.671999999999997 367.24556521739134 1.152000000000001V10.463999999999999Q367.24556521739134 10.944000000000003 366.90956521739133 11.280000000000001Q366.5735652173913 11.616 366.0935652173913 11.616ZM406.60556521739136 11.616H386.54156521739134Q386.0615652173913 11.616 386.0615652173913 12.096000000000004V27.264000000000003Q386.0615652173913 27.744 386.54156521739134 27.744H398.0615652173913Q398.54156521739134 27.744 398.8775652173913 28.080000000000002Q399.2135652173913 28.416000000000004 399.2135652173913 28.896V38.208Q399.2135652173913 38.688 398.8775652173913 39.024Q398.54156521739134 39.36 398.0615652173913 39.36H386.54156521739134Q386.0615652173913 39.36 386.0615652173913 39.84V55.104Q386.0615652173913 55.584 386.54156521739134 55.584H406.60556521739136Q407.0855652173913 55.584 407.42156521739133 55.92Q407.75756521739135 56.256 407.75756521739135 56.736000000000004V66.048Q407.75756521739135 66.528 407.42156521739133 66.864Q407.0855652173913 67.2 406.60556521739136 67.2H373.6775652173913Q373.19756521739134 67.2 372.86156521739133 66.864Q372.5255652173913 66.528 372.5255652173913 66.048V1.152000000000001Q372.5255652173913 0.671999999999997 372.86156521739133 0.3359999999999985Q373.19756521739134 0.0 373.6775652173913 0.0H406.60556521739136Q407.0855652173913 0.0 407.42156521739133 0.3359999999999985Q407.75756521739135 0.671999999999997 407.75756521739135 1.152000000000001V10.463999999999999Q407.75756521739135 10.944000000000003 407.42156521739133 11.280000000000001Q407.0855652173913 11.616 406.60556521739136 11.616Z" fill="#E8561C"></path><path d="M90.05156521739131 101.90400000000001V79.596Q90.05156521739131 79.43100000000001 90.16706521739133 79.31550000000001Q90.28256521739132 79.20000000000002 90.44756521739131 79.20000000000002H93.48356521739132Q93.64856521739132 79.20000000000002 93.76406521739132 79.31550000000001Q93.87956521739132 79.43100000000001 93.87956521739132 79.596V88.70400000000001Q93.87956521739132 88.83600000000001 93.94556521739132 88.85250000000002Q94.01156521739132 88.86900000000001 94.07756521739131 88.77000000000001L99.02756521739131 79.49700000000001Q99.19256521739132 79.20000000000002 99.52256521739132 79.20000000000002H102.78956521739131Q103.02056521739132 79.20000000000002 103.08656521739132 79.33200000000002Q103.15256521739131 79.46400000000001 103.05356521739132 79.662L98.10356521739132 88.93500000000002Q98.07056521739132 89.06700000000001 98.07056521739132 89.13300000000001L103.41656521739132 101.83800000000001Q103.44956521739132 101.90400000000001 103.44956521739132 102.03600000000002Q103.44956521739132 102.30000000000001 103.11956521739131 102.30000000000001H99.85256521739132Q99.48956521739132 102.30000000000001 99.39056521739131 102.00300000000001L95.49656521739132 92.46600000000001Q95.46356521739132 92.36700000000002 95.39756521739132 92.38350000000001Q95.33156521739132 92.4 95.26556521739131 92.46600000000001L93.94556521739132 94.677Q93.87956521739132 94.80900000000001 93.87956521739132 94.87500000000001V101.90400000000001Q93.87956521739132 102.06900000000002 93.76406521739132 102.18450000000001Q93.64856521739132 102.30000000000001 93.48356521739132 102.30000000000001H90.44756521739131Q90.28256521739132 102.30000000000001 90.16706521739133 102.18450000000001Q90.05156521739131 102.06900000000002 90.05156521739131 101.90400000000001ZM135.47842236024846 101.90400000000001V79.596Q135.47842236024846 79.43100000000001 135.59392236024846 79.31550000000001Q135.70942236024845 79.20000000000002 135.87442236024845 79.20000000000002H138.91042236024845Q139.07542236024844 79.20000000000002 139.19092236024846 79.31550000000001Q139.30642236024846 79.43100000000001 139.30642236024846 79.596V101.90400000000001Q139.30642236024846 102.06900000000002 139.19092236024846 102.18450000000001Q139.07542236024844 102.30000000000001 138.91042236024845 102.30000000000001H135.87442236024845Q135.70942236024845 102.30000000000001 135.59392236024846 102.18450000000001Q135.47842236024846 102.06900000000002 135.47842236024846 101.90400000000001ZM184.7992795031056 79.596V82.10400000000001Q184.7992795031056 82.269 184.6837795031056 82.3845Q184.5682795031056 82.50000000000001 184.40327950310558 82.50000000000001H180.21227950310558Q180.04727950310559 82.50000000000001 180.04727950310559 82.665V101.90400000000001Q180.04727950310559 102.06900000000002 179.9317795031056 102.18450000000001Q179.8162795031056 102.30000000000001 179.6512795031056 102.30000000000001H176.6152795031056Q176.45027950310558 102.30000000000001 176.33477950310558 102.18450000000001Q176.21927950310558 102.06900000000002 176.21927950310558 101.90400000000001V82.665Q176.21927950310558 82.50000000000001 176.0542795031056 82.50000000000001H172.09427950310558Q171.9292795031056 82.50000000000001 171.8137795031056 82.3845Q171.6982795031056 82.269 171.6982795031056 82.10400000000001V79.596Q171.6982795031056 79.43100000000001 171.8137795031056 79.31550000000001Q171.9292795031056 79.20000000000002 172.09427950310558 79.20000000000002H184.40327950310558Q184.5682795031056 79.20000000000002 184.6837795031056 79.31550000000001Q184.7992795031056 79.43100000000001 184.7992795031056 79.596ZM216.76213664596273 96.36000000000001V85.10700000000001Q216.76213664596273 82.269 218.46163664596273 80.6025Q220.16113664596273 78.936 222.96613664596273 78.936Q225.80413664596273 78.936 227.52013664596274 80.6025Q229.23613664596274 82.269 229.23613664596274 85.10700000000001V85.50300000000001Q229.23613664596274 85.668 229.12063664596275 85.80000000000001Q229.00513664596272 85.93200000000002 228.84013664596273 85.93200000000002L225.77113664596274 86.06400000000001Q225.37513664596273 86.06400000000001 225.37513664596273 85.668V84.84300000000002Q225.37513664596273 83.68800000000002 224.71513664596273 82.96200000000002Q224.05513664596273 82.23600000000002 222.96613664596273 82.23600000000002Q221.91013664596272 82.23600000000002 221.25013664596273 82.96200000000002Q220.59013664596273 83.68800000000002 220.59013664596273 84.84300000000002V96.65700000000001Q220.59013664596273 97.81200000000001 221.25013664596273 98.53800000000001Q221.91013664596272 99.26400000000001 222.96613664596273 99.26400000000001Q224.05513664596273 99.26400000000001 224.71513664596273 98.53800000000001Q225.37513664596273 97.81200000000001 225.37513664596273 96.65700000000001V95.83200000000001Q225.37513664596273 95.66700000000002 225.49063664596272 95.5515Q225.60613664596272 95.436 225.77113664596274 95.436L228.84013664596273 95.56800000000001Q229.00513664596272 95.56800000000001 229.12063664596275 95.68350000000001Q229.23613664596274 95.799 229.23613664596274 95.96400000000001V96.36000000000001Q229.23613664596274 99.165 227.52013664596274 100.8645Q225.80413664596273 102.56400000000001 222.96613664596273 102.56400000000001Q220.16113664596273 102.56400000000001 218.46163664596273 100.8645Q216.76213664596273 99.165 216.76213664596273 96.36000000000001ZM270.66999378881985 79.20000000000002H273.70599378881985Q273.8709937888199 79.20000000000002 273.98649378881987 79.31550000000001Q274.10199378881987 79.43100000000001 274.10199378881987 79.596V101.90400000000001Q274.10199378881987 102.06900000000002 273.98649378881987 102.18450000000001Q273.8709937888199 102.30000000000001 273.70599378881985 102.30000000000001H270.66999378881985Q270.5049937888199 102.30000000000001 270.3894937888199 102.18450000000001Q270.2739937888199 102.06900000000002 270.2739937888199 101.90400000000001V92.56500000000001Q270.2739937888199 92.4 270.1089937888199 92.4H265.91799378881984Q265.7529937888199 92.4 265.7529937888199 92.56500000000001V101.90400000000001Q265.7529937888199 102.06900000000002 265.6374937888199 102.18450000000001Q265.5219937888199 102.30000000000001 265.35699378881986 102.30000000000001H262.32099378881986Q262.15599378881984 102.30000000000001 262.04049378881984 102.18450000000001Q261.92499378881985 102.06900000000002 261.92499378881985 101.90400000000001V79.596Q261.92499378881985 79.43100000000001 262.04049378881984 79.31550000000001Q262.15599378881984 79.20000000000002 262.32099378881986 79.20000000000002H265.35699378881986Q265.5219937888199 79.20000000000002 265.6374937888199 79.31550000000001Q265.7529937888199 79.43100000000001 265.7529937888199 79.596V88.90200000000002Q265.7529937888199 89.06700000000001 265.91799378881984 89.06700000000001H270.1089937888199Q270.2739937888199 89.06700000000001 270.2739937888199 88.90200000000002V79.596Q270.2739937888199 79.43100000000001 270.3894937888199 79.31550000000001Q270.5049937888199 79.20000000000002 270.66999378881985 79.20000000000002ZM318.47285093167704 82.50000000000001H311.344850931677Q311.17985093167704 82.50000000000001 311.17985093167704 82.665V88.90200000000002Q311.17985093167704 89.06700000000001 311.344850931677 89.06700000000001H315.56885093167705Q315.733850931677 89.06700000000001 315.849350931677 89.1825Q315.964850931677 89.29800000000002 315.964850931677 89.46300000000001V92.004Q315.964850931677 92.16900000000001 315.849350931677 92.28450000000001Q315.733850931677 92.4 315.56885093167705 92.4H311.344850931677Q311.17985093167704 92.4 311.17985093167704 92.56500000000001V98.83500000000001Q311.17985093167704 99.00000000000001 311.344850931677 99.00000000000001H318.47285093167704Q318.637850931677 99.00000000000001 318.753350931677 99.11550000000001Q318.868850931677 99.23100000000001 318.868850931677 99.39600000000002V101.90400000000001Q318.868850931677 102.06900000000002 318.753350931677 102.18450000000001Q318.637850931677 102.30000000000001 318.47285093167704 102.30000000000001H307.747850931677Q307.582850931677 102.30000000000001 307.467350931677 102.18450000000001Q307.351850931677 102.06900000000002 307.351850931677 101.90400000000001V79.596Q307.351850931677 79.43100000000001 307.467350931677 79.31550000000001Q307.582850931677 79.20000000000002 307.747850931677 79.20000000000002H318.47285093167704Q318.637850931677 79.20000000000002 318.753350931677 79.31550000000001Q318.868850931677 79.43100000000001 318.868850931677 79.596V82.10400000000001Q318.868850931677 82.269 318.753350931677 82.3845Q318.637850931677 82.50000000000001 318.47285093167704 82.50000000000001ZM361.16070807453417 79.20000000000002H364.16370807453416Q364.3287080745342 79.20000000000002 364.4442080745342 79.31550000000001Q364.55970807453417 79.43100000000001 364.55970807453417 79.596V101.90400000000001Q364.55970807453417 102.06900000000002 364.4442080745342 102.18450000000001Q364.3287080745342 102.30000000000001 364.16370807453416 102.30000000000001H360.6987080745342Q360.36870807453414 102.30000000000001 360.26970807453415 101.97000000000001L355.3527080745342 87.97800000000001Q355.31970807453416 87.879 355.2372080745341 87.8955Q355.15470807453414 87.912 355.15470807453414 88.01100000000001L355.18770807453416 101.90400000000001Q355.18770807453416 102.06900000000002 355.07220807453416 102.18450000000001Q354.95670807453416 102.30000000000001 354.79170807453414 102.30000000000001H351.78870807453416Q351.62370807453414 102.30000000000001 351.50820807453414 102.18450000000001Q351.39270807453414 102.06900000000002 351.39270807453414 101.90400000000001V79.596Q351.39270807453414 79.43100000000001 351.50820807453414 79.31550000000001Q351.62370807453414 79.20000000000002 351.78870807453416 79.20000000000002H355.18770807453416Q355.51770807453414 79.20000000000002 355.61670807453413 79.53000000000002L360.5667080745342 93.42300000000002Q360.59970807453413 93.522 360.6822080745342 93.50550000000001Q360.76470807453416 93.489 360.76470807453416 93.39000000000001V79.596Q360.76470807453416 79.43100000000001 360.88020807453415 79.31550000000001Q360.99570807453415 79.20000000000002 361.16070807453417 79.20000000000002ZM397.14956521739134 96.59100000000001V95.733Q397.14956521739134 95.56800000000001 397.26506521739134 95.45250000000001Q397.38056521739134 95.33700000000002 397.5455652173913 95.33700000000002H400.54856521739134Q400.7135652173913 95.33700000000002 400.8290652173913 95.45250000000001Q400.9445652173913 95.56800000000001 400.9445652173913 95.733V96.39300000000001Q400.9445652173913 97.68 401.5880652173913 98.47200000000001Q402.23156521739133 99.26400000000001 403.2545652173913 99.26400000000001Q404.2775652173913 99.26400000000001 404.93756521739135 98.5215Q405.5975652173913 97.77900000000001 405.5975652173913 96.558Q405.5975652173913 95.70000000000002 405.2345652173913 95.07300000000001Q404.8715652173913 94.44600000000001 404.21156521739135 93.88500000000002Q403.5515652173913 93.32400000000001 402.09956521739133 92.26800000000001Q400.44956521739135 91.08000000000001 399.44306521739134 90.156Q398.4365652173913 89.23200000000001 397.76006521739134 87.92850000000001Q397.0835652173913 86.62500000000001 397.0835652173913 84.909Q397.0835652173913 82.17000000000002 398.7335652173913 80.55300000000001Q400.3835652173913 78.936 403.08956521739134 78.936Q405.8285652173913 78.936 407.5115652173913 80.63550000000001Q409.1945652173913 82.33500000000001 409.1945652173913 85.14000000000001V85.93200000000002Q409.1945652173913 86.09700000000001 409.0790652173913 86.2125Q408.9635652173913 86.328 408.79856521739134 86.328H405.8285652173913Q405.66356521739135 86.328 405.54806521739135 86.2125Q405.43256521739136 86.09700000000001 405.43256521739136 85.93200000000002V85.07400000000001Q405.43256521739136 83.787 404.78906521739134 83.01150000000001Q404.1455652173913 82.23600000000002 403.08956521739134 82.23600000000002Q402.09956521739133 82.23600000000002 401.4725652173913 82.94550000000001Q400.8455652173913 83.65500000000002 400.8455652173913 84.909Q400.8455652173913 86.09700000000001 401.5220652173913 86.92200000000001Q402.1985652173913 87.74700000000001 404.17856521739134 89.19900000000001Q406.1915652173913 90.68400000000001 407.2145652173913 91.62450000000001Q408.2375652173913 92.56500000000001 408.79856521739134 93.68700000000001Q409.3595652173913 94.80900000000001 409.3595652173913 96.36000000000001Q409.3595652173913 99.165 407.6765652173913 100.8645Q405.99356521739134 102.56400000000001 403.2545652173913 102.56400000000001Q400.5155652173913 102.56400000000001 398.83256521739133 100.91400000000002Q397.14956521739134 99.26400000000001 397.14956521739134 96.59100000000001Z" fill="#FFFFFF"></path></svg>